<?xml version="1.0" standalone="no"?>
<!DOCTYPE svg PUBLIC "-//W3C//DTD SVG 20010904//EN"
 "http://www.w3.org/TR/2001/REC-SVG-20010904/DTD/svg10.dtd">
<svg version="1.0" xmlns="http://www.w3.org/2000/svg"
 width="198.000000pt" height="198.000000pt" viewBox="0 0 198.000000 198.000000"
 preserveAspectRatio="xMidYMid meet">

<g transform="translate(0.000000,198.000000) scale(0.100000,-0.100000)"
fill="#000000" stroke="none">
<path d="M1182 1384 c-40 -69 -72 -129 -70 -134 2 -5 38 51 80 125 42 74 74
135 70 135 -4 0 -40 -56 -80 -126z"/>
<path d="M348 1165 c21 -16 22 -21 22 -186 0 -167 0 -170 -22 -179 -34 -13
198 -12 247 1 97 26 152 108 142 211 -6 70 -36 116 -94 144 -30 14 -68 19
-178 22 -132 3 -139 3 -117 -13z m216 -6 c41 -19 60 -73 60 -169 0 -138 -32
-195 -106 -188 l-33 3 -3 169 c-2 116 1 173 9 182 14 17 40 18 73 3z"/>
<path d="M803 1169 c15 -9 17 -29 17 -184 0 -155 -2 -175 -17 -184 -31 -18
206 -14 258 4 89 31 129 88 129 183 0 102 -46 161 -140 181 -67 14 -272 14
-247 0z m229 -18 c32 -25 48 -82 48 -166 0 -124 -38 -190 -104 -183 l-31 3 -3
170 c-1 93 0 175 2 182 8 19 60 16 88 -6z"/>
<path d="M1258 1165 c21 -16 22 -22 22 -180 0 -158 -1 -164 -22 -179 -21 -15
-14 -16 92 -16 126 0 170 9 221 43 52 35 74 81 74 157 0 81 -24 125 -86 160
-40 22 -57 25 -184 28 -132 3 -139 3 -117 -13z m221 -11 c37 -26 51 -74 51
-171 -1 -138 -34 -192 -111 -181 -24 3 -24 3 -27 173 -1 93 0 175 2 182 7 18
57 16 85 -3z"/>
<path d="M885 637 c-32 -56 -68 -117 -78 -134 -10 -18 -15 -33 -10 -33 9 0
158 259 151 265 -2 2 -30 -42 -63 -98z"/>
</g>
</svg>
